<svg width="35" height="33" viewBox="0 0 35 33" fill="none" xmlns="http://www.w3.org/2000/svg">
<path d="M22.6042 19.25H21.4521L21.0438 18.8787C22.4729 17.3112 23.3333 15.2763 23.3333 13.0625C23.3333 8.12625 19.0896 4.125 13.8542 4.125C8.61875 4.125 4.375 8.12625 4.375 13.0625C4.375 17.9987 8.61875 22 13.8542 22C16.2021 22 18.3604 21.1888 20.0229 19.8413L20.4167 20.2263V21.3125L27.7083 28.1737L29.8813 26.125L22.6042 19.25V19.25ZM13.8542 19.25C10.2229 19.25 7.29167 16.4863 7.29167 13.0625C7.29167 9.63875 10.2229 6.875 13.8542 6.875C17.4854 6.875 20.4167 9.63875 20.4167 13.0625C20.4167 16.4863 17.4854 19.25 13.8542 19.25Z" fill="#A4A4A4"/>
</svg>
